<?xml version="1.0" standalone="no"?>
<!DOCTYPE svg PUBLIC "-//W3C//DTD SVG 20010904//EN"
 "http://www.w3.org/TR/2001/REC-SVG-20010904/DTD/svg10.dtd">
<svg version="1.0" xmlns="http://www.w3.org/2000/svg"
 width="512.000000pt" height="512.000000pt" viewBox="0 0 512.000000 512.000000"
 preserveAspectRatio="xMidYMid meet">

<g transform="translate(0.000000,512.000000) scale(0.100000,-0.100000)"
fill="#000000" stroke="none">
<path d="M1405 5096 c-59 -27 -77 -46 -104 -106 -26 -56 -26 -113 -2 -165 46
-99 139 -146 245 -123 69 15 139 85 154 154 23 106 -24 199 -123 245 -54 25
-110 24 -170 -5z"/>
<path d="M2268 4660 c-60 -32 -107 -88 -124 -147 -15 -51 -14 -57 10 -141 35
-123 39 -161 26 -245 -22 -145 -63 -220 -189 -345 -108 -107 -165 -186 -204
-285 -29 -73 -57 -198 -57 -257 l0 -40 853 0 854 0 11 68 c32 187 16 323 -59
511 -126 318 -439 624 -862 845 -95 49 -114 56 -165 56 -37 -1 -70 -8 -94 -20z"/>
<path d="M3965 4456 c-59 -27 -77 -46 -104 -106 -26 -56 -26 -113 -2 -165 46
-99 139 -146 245 -123 69 15 139 85 154 154 23 106 -24 199 -123 245 -54 25
-110 24 -170 -5z"/>
<path d="M593 3621 c-165 -41 -219 -251 -93 -365 144 -130 364 -16 348 179
-10 123 -136 215 -255 186z"/>
<path d="M1613 2980 c-391 -43 -714 -367 -752 -757 -4 -44 -3 -127 2 -190 l11
-113 1677 0 1677 0 6 44 c9 58 9 252 1 302 -35 200 -139 382 -300 522 -73 63
-231 144 -340 174 -79 22 -87 22 -995 24 -503 1 -948 -2 -987 -6z"/>
<path d="M760 1700 c-349 -42 -627 -278 -725 -615 -119 -411 96 -853 496
-1019 170 -70 56 -66 2029 -66 1973 0 1859 -4 2029 66 400 166 615 608 496
1019 -87 298 -311 515 -618 597 l-82 22 -1780 2 c-979 1 -1809 -2 -1845 -6z"/>
</g>
</svg>
