<?xml version="1.0" standalone="no"?>
<!DOCTYPE svg PUBLIC "-//W3C//DTD SVG 20010904//EN"
 "http://www.w3.org/TR/2001/REC-SVG-20010904/DTD/svg10.dtd">
<svg version="1.0" xmlns="http://www.w3.org/2000/svg"
 width="512.000000pt" height="512.000000pt" viewBox="0 0 512.000000 512.000000"
 preserveAspectRatio="xMidYMid meet">

<g transform="translate(0.000000,512.000000) scale(0.100000,-0.100000)"
fill="#000000" stroke="none">
<path d="M2415 4934 c-454 -313 -1055 -571 -1687 -725 -262 -63 -265 -65 -285
-103 -14 -27 -15 -66 -10 -311 30 -1389 383 -2427 1043 -3065 277 -269 614
-472 983 -595 102 -34 124 -31 286 29 532 200 959 543 1278 1026 106 161 265
480 337 675 201 544 310 1190 327 1927 6 293 3 320 -39 347 -12 7 -94 30 -182
51 -658 155 -1258 406 -1727 722 -114 77 -153 98 -180 98 -26 0 -59 -18 -144
-76z m392 -565 c379 -208 759 -368 1148 -484 181 -54 234 -80 265 -130 37 -60
41 -91 30 -255 -39 -590 -135 -1091 -286 -1494 -66 -175 -200 -442 -292 -581
-239 -359 -547 -625 -927 -798 -152 -70 -201 -73 -321 -21 -503 214 -880 582
-1139 1109 -157 319 -250 616 -329 1045 -44 242 -84 618 -89 835 -2 93 0 103
26 147 35 60 84 89 207 123 403 112 904 324 1284 543 168 96 178 95 423 -39z"/>
<path d="M2510 4236 c-57 -38 -288 -158 -450 -235 -263 -126 -589 -250 -867
-331 l-113 -33 0 -56 c0 -73 26 -361 46 -521 111 -869 402 -1528 849 -1922
153 -134 398 -288 547 -343 l47 -17 123 60 c467 227 796 591 1028 1136 168
396 286 969 316 1536 l7 126 -129 38 c-400 118 -912 336 -1258 535 -49 28 -94
51 -100 50 -6 0 -27 -11 -46 -23z"/>
</g>
</svg>
