<?xml version="1.0" standalone="no"?>
<!DOCTYPE svg PUBLIC "-//W3C//DTD SVG 20010904//EN"
 "http://www.w3.org/TR/2001/REC-SVG-20010904/DTD/svg10.dtd">
<svg version="1.0" xmlns="http://www.w3.org/2000/svg"
 width="512.000000pt" height="512.000000pt" viewBox="0 0 512.000000 512.000000"
 preserveAspectRatio="xMidYMid meet">

<g transform="translate(0.000000,512.000000) scale(0.100000,-0.100000)"
fill="#000000" stroke="none">
<path d="M2418 4671 c-198 -64 -338 -253 -338 -457 0 -113 55 -251 133 -332
157 -164 418 -193 611 -68 162 106 245 307 205 498 -35 167 -163 308 -326 358
-83 26 -206 26 -285 1z"/>
<path d="M2355 3513 c-322 -25 -707 -96 -1065 -196 -133 -37 -173 -65 -205
-139 -45 -109 8 -237 117 -282 55 -24 87 -20 273 29 94 25 176 45 182 45 9 0
10 -7 2 -27 -25 -66 -99 -328 -123 -433 -81 -365 -46 -620 119 -857 l43 -61
117 -513 c64 -282 122 -524 130 -538 17 -34 61 -74 104 -96 25 -13 51 -16 97
-13 78 5 136 41 174 108 l25 45 3 348 3 347 219 2 c121 1 228 2 238 2 16 1 17
-24 22 -360 l5 -361 27 -39 c15 -21 44 -50 65 -64 31 -21 48 -25 113 -25 65 0
82 4 113 25 76 52 76 51 216 667 109 477 136 584 165 640 102 204 118 436 50
743 -22 97 -107 395 -129 452 -7 18 19 12 290 -63 84 -23 124 -24 173 -3 109
45 162 173 117 282 -36 85 -74 106 -322 172 -316 85 -598 136 -878 160 -110 9
-384 11 -480 3z"/>
</g>
</svg>
