<?xml version="1.0" standalone="no"?>
<!DOCTYPE svg PUBLIC "-//W3C//DTD SVG 20010904//EN"
 "http://www.w3.org/TR/2001/REC-SVG-20010904/DTD/svg10.dtd">
<svg version="1.0" xmlns="http://www.w3.org/2000/svg"
 width="512.000000pt" height="512.000000pt" viewBox="0 0 512.000000 512.000000"
 preserveAspectRatio="xMidYMid meet">

<g transform="translate(0.000000,512.000000) scale(0.100000,-0.100000)"
fill="#000000" stroke="none">
<path d="M2040 5105 c-318 -45 -607 -178 -857 -394 -147 -127 -333 -372 -333
-438 0 -47 31 -75 78 -71 35 3 41 9 112 113 140 206 347 388 563 497 147 73
416 148 531 148 28 0 23 -5 -43 -41 -412 -224 -713 -633 -805 -1094 -24 -120
-36 -302 -26 -378 13 -86 44 -167 86 -222 19 -25 34 -47 34 -50 0 -3 -70 -5
-155 -5 -131 0 -162 3 -209 21 -110 41 -200 152 -214 266 -10 83 3 253 28 363
13 52 25 109 27 125 10 64 -67 106 -119 66 -21 -17 -31 -41 -52 -130 -36 -149
-53 -347 -39 -441 33 -214 203 -386 413 -420 103 -16 711 -13 792 4 230 49
395 248 398 481 2 195 105 397 254 499 53 37 58 39 83 25 15 -8 59 -46 98 -84
243 -239 243 -625 0 -870 -66 -66 -165 -129 -235 -150 -43 -13 -178 -83 -240
-125 -192 -131 -342 -341 -416 -585 -27 -88 -28 -97 -28 -341 l-1 -250 42 -86
c67 -134 176 -225 324 -270 33 -10 139 -13 434 -13 383 0 391 1 455 23 189 68
318 227 340 423 5 46 10 125 10 175 0 61 4 95 13 101 6 5 39 20 72 33 429 167
779 531 934 974 72 205 103 467 81 681 -73 710 -587 1276 -1295 1426 -92 20
-136 22 -570 25 -354 2 -493 -1 -565 -11z m995 -146 c642 -78 1155 -563 1272
-1202 25 -137 23 -371 -5 -512 -52 -263 -159 -485 -333 -690 -148 -176 -341
-311 -590 -414 -139 -58 -160 -97 -168 -321 -6 -154 -8 -169 -34 -221 -32 -67
-100 -132 -165 -162 -72 -31 -191 -35 -264 -7 -81 30 -157 102 -193 182 -25
55 -29 78 -33 183 -2 66 1 167 7 225 37 343 253 627 573 754 224 90 360 210
453 401 58 119 78 203 78 340 0 168 -44 304 -148 450 -98 138 -278 257 -445
294 -402 88 -812 -161 -914 -556 -9 -34 -20 -112 -25 -173 -8 -94 -14 -122
-40 -175 -125 -253 -488 -251 -613 3 -32 65 -33 69 -32 197 2 493 287 965 738
1224 261 149 587 216 881 180z m-20 -854 c158 -40 311 -157 388 -296 125 -225
93 -518 -78 -706 -72 -80 -138 -124 -278 -182 -260 -110 -439 -271 -556 -501
-99 -192 -125 -325 -119 -601 5 -208 15 -248 88 -353 l40 -57 -167 3 c-157 3
-172 5 -224 29 -72 34 -134 96 -168 168 -25 55 -26 60 -26 261 0 168 4 218 19
274 47 175 137 329 262 445 90 84 159 127 305 192 130 57 179 84 242 137 254
209 345 576 220 884 -35 86 -99 182 -167 250 -46 45 -53 57 -39 61 42 11 203
6 258 -8z"/>
<path d="M2185 993 c-184 -26 -351 -168 -405 -342 -27 -86 -27 -216 0 -304 24
-77 85 -172 143 -223 53 -46 166 -101 236 -114 30 -5 209 -10 403 -10 l349 0
24 25 c32 31 33 75 3 102 -17 14 -43 22 -91 26 -160 14 -275 113 -314 271 -57
234 150 452 394 414 115 -18 222 -106 263 -216 18 -47 21 -72 18 -142 -4 -86
-23 -140 -69 -199 -28 -35 -25 -85 7 -110 48 -37 86 -22 138 56 102 156 103
390 1 540 -68 101 -146 162 -261 205 -57 21 -75 22 -434 24 -206 1 -388 0
-405 -3z m287 -190 c-136 -173 -134 -448 2 -611 15 -16 26 -33 26 -36 0 -12
-266 -6 -321 8 -107 25 -199 99 -242 195 -24 55 -34 170 -18 226 28 104 125
209 221 240 30 9 97 14 203 14 l159 1 -30 -37z"/>
</g>
</svg>
