<?xml version="1.0" standalone="no"?>
<!DOCTYPE svg PUBLIC "-//W3C//DTD SVG 20010904//EN"
 "http://www.w3.org/TR/2001/REC-SVG-20010904/DTD/svg10.dtd">
<svg version="1.0" xmlns="http://www.w3.org/2000/svg"
 width="512.000000pt" height="512.000000pt" viewBox="0 0 512.000000 512.000000"
 preserveAspectRatio="xMidYMid meet">

<g transform="translate(0.000000,512.000000) scale(0.100000,-0.100000)"
fill="#000000" stroke="none">
<path d="M2420 4864 c-36 -7 -108 -35 -160 -60 -159 -79 -297 -236 -365 -417
-91 -243 -65 -528 67 -752 23 -38 78 -106 123 -151 65 -66 98 -90 175 -128
206 -101 394 -101 599 0 207 102 362 320 406 568 29 166 12 333 -49 482 -45
110 -95 184 -186 275 -161 161 -392 230 -610 183z"/>
<path d="M1730 3345 c-191 -26 -334 -69 -507 -150 -505 -239 -854 -697 -959
-1260 -17 -87 -19 -151 -19 -495 1 -414 8 -523 56 -800 45 -259 65 -304 164
-365 43 -27 57 -30 124 -30 120 1 188 48 251 174 l32 65 -60 55 c-230 212
-310 540 -205 836 33 92 71 158 148 255 l62 80 -9 52 c-14 72 -4 180 22 258
28 83 98 189 161 242 l49 41 0 169 0 168 79 0 79 0 4 -197 c3 -178 5 -203 25
-245 30 -66 96 -133 162 -165 52 -26 64 -28 181 -27 227 1 472 74 671 200 l37
23 40 -67 41 -67 -22 -18 c-39 -31 -260 -136 -341 -162 -201 -64 -457 -92
-574 -61 -35 9 -88 28 -120 43 -67 33 -161 121 -191 181 -12 23 -25 42 -29 42
-12 0 -45 -38 -69 -80 -61 -101 -67 -239 -17 -350 56 -125 224 -238 441 -298
l98 -27 984 -3 c858 -2 995 -1 1075 13 180 31 357 111 450 203 102 100 139
245 97 378 -20 66 -81 164 -101 164 -5 0 -19 -19 -31 -42 -30 -60 -124 -148
-191 -181 -32 -15 -85 -34 -120 -43 -117 -31 -373 -3 -574 61 -81 26 -302 131
-341 162 l-22 18 41 67 40 67 37 -23 c62 -39 192 -102 267 -129 198 -71 478
-96 576 -50 66 30 133 96 165 162 27 55 28 61 31 254 l4 197 79 0 79 0 0 -168
0 -169 49 -41 c63 -53 133 -159 161 -242 26 -78 36 -186 22 -258 l-9 -52 62
-80 c77 -97 115 -163 148 -256 70 -196 57 -425 -35 -607 -45 -91 -84 -144
-160 -219 l-69 -68 32 -62 c55 -110 124 -165 223 -175 95 -10 188 35 242 116
43 65 102 400 124 706 13 184 13 640 -1 763 -79 720 -601 1317 -1298 1483
-107 26 -277 49 -364 49 -66 0 -70 -1 -118 -42 -150 -130 -322 -193 -529 -193
-207 0 -379 63 -529 193 -50 42 -50 42 -128 41 -43 -1 -121 -7 -173 -14z"/>
<path d="M841 1480 c-139 -197 -158 -433 -54 -647 39 -80 129 -186 200 -235
124 -85 318 -159 483 -184 140 -21 2040 -21 2180 0 122 19 242 57 353 112 213
105 327 238 378 444 46 183 -1 389 -126 544 l-23 28 -68 -69 c-106 -107 -251
-183 -463 -241 l-96 -27 -1040 0 -1040 0 -108 28 c-201 53 -348 128 -455 235
-40 39 -74 72 -76 72 -2 0 -22 -27 -45 -60z"/>
</g>
</svg>
