<?xml version="1.0" standalone="no"?>
<!DOCTYPE svg PUBLIC "-//W3C//DTD SVG 20010904//EN"
 "http://www.w3.org/TR/2001/REC-SVG-20010904/DTD/svg10.dtd">
<svg version="1.0" xmlns="http://www.w3.org/2000/svg"
 width="512.000000pt" height="512.000000pt" viewBox="0 0 512.000000 512.000000"
 preserveAspectRatio="xMidYMid meet">

<g transform="translate(0.000000,512.000000) scale(0.100000,-0.100000)"
fill="#000000" stroke="none">
<path d="M1805 5105 c-203 -45 -378 -175 -473 -353 -96 -180 -101 -428 -12
-613 39 -82 80 -136 154 -208 37 -35 66 -64 64 -66 -2 -1 -28 -16 -58 -33 -76
-43 -115 -73 -189 -145 -117 -115 -196 -247 -248 -414 l-27 -88 -4 -536 -3
-536 -282 -108 c-155 -59 -296 -116 -314 -127 -36 -21 -57 -72 -47 -112 9 -38
59 -76 99 -76 20 0 341 118 787 289 414 158 763 291 774 295 21 6 21 4 27
-151 5 -166 18 -241 62 -358 72 -191 229 -374 403 -472 34 -19 62 -36 62 -37
0 -2 -37 -41 -82 -87 -138 -141 -198 -286 -198 -479 0 -309 193 -569 490 -662
97 -30 281 -32 375 -4 114 34 214 94 301 181 131 130 191 264 201 450 7 133
-12 222 -74 345 -38 76 -64 111 -129 176 l-80 81 55 29 c219 114 399 359 457
622 15 65 19 155 23 586 l6 509 380 146 c209 81 391 152 403 160 36 19 56 75
42 117 -14 42 -54 74 -92 74 -16 0 -423 -151 -904 -335 -480 -184 -876 -335
-879 -335 -3 0 -5 66 -5 148 -1 202 -34 348 -113 492 -79 142 -223 287 -364
366 -29 16 -53 31 -53 34 0 3 21 21 47 40 90 68 183 216 220 351 28 102 23
273 -10 374 -80 243 -275 419 -520 469 -91 19 -190 19 -272 1z m278 -222 c147
-46 262 -162 312 -313 22 -65 23 -198 2 -266 -35 -117 -115 -223 -211 -279
-114 -67 -273 -86 -389 -46 -203 70 -328 242 -328 451 0 188 100 348 267 427
113 54 232 63 347 26z m10 -1158 c273 -58 494 -281 551 -557 11 -53 16 -131
16 -250 l0 -173 -713 -273 c-391 -150 -716 -272 -720 -272 -5 0 -7 215 -5 478
l4 477 27 80 c47 139 122 250 231 343 66 56 213 129 296 146 86 19 228 19 313
1z m1587 -1800 c-66 -265 -262 -459 -530 -526 -115 -29 -280 -23 -387 14 -233
81 -406 262 -473 497 -28 98 -42 441 -19 456 8 4 331 130 719 279 l705 270 3
-455 c2 -427 1 -460 -18 -535z m-558 -784 c116 -40 194 -97 254 -189 174 -261
56 -608 -242 -713 -75 -26 -205 -29 -284 -5 -202 60 -340 246 -340 458 0 201
142 392 338 452 70 22 207 20 274 -3z"/>
</g>
</svg>
