<?xml version="1.0" standalone="no"?>
<!DOCTYPE svg PUBLIC "-//W3C//DTD SVG 20010904//EN"
 "http://www.w3.org/TR/2001/REC-SVG-20010904/DTD/svg10.dtd">
<svg version="1.0" xmlns="http://www.w3.org/2000/svg"
 width="512.000000pt" height="512.000000pt" viewBox="0 0 512.000000 512.000000"
 preserveAspectRatio="xMidYMid meet">

<g transform="translate(0.000000,512.000000) scale(0.100000,-0.100000)"
fill="#000000" stroke="none">
<path d="M498 4946 c-82 -14 -104 -33 -117 -100 -37 -190 -16 -383 63 -575 87
-215 291 -422 510 -520 l68 -31 -62 -67 c-318 -339 -524 -765 -597 -1233 -27
-174 -24 -511 5 -684 80 -467 257 -833 576 -1190 133 -149 433 -386 488 -386
51 0 298 191 448 346 344 356 562 807 624 1292 18 142 21 398 5 540 -53 492
-276 974 -606 1313 l-64 66 93 45 c286 138 484 393 547 705 23 110 27 240 11
343 -17 110 -29 121 -150 140 -192 30 -408 -7 -595 -103 -94 -48 -156 -93
-241 -178 l-72 -70 -47 50 c-219 234 -574 353 -887 297z m1173 -3150 c107 -17
254 -57 339 -92 78 -31 226 -107 259 -132 l23 -19 -21 -74 c-63 -223 -201
-493 -354 -689 -106 -135 -307 -329 -430 -414 l-56 -39 -64 46 c-92 66 -245
205 -325 295 -202 229 -338 464 -428 739 l-45 137 23 18 c46 35 245 128 350
163 157 52 294 73 483 74 93 1 196 -5 246 -13z"/>
<path d="M1183 1459 c-56 -11 -91 -30 -135 -76 -49 -51 -68 -99 -68 -176 0
-236 283 -345 441 -170 52 57 73 119 66 193 -14 154 -153 259 -304 229z m122
-191 c52 -62 19 -144 -62 -155 -37 -5 -45 -2 -73 25 -54 54 -36 142 33 160 46
12 74 4 102 -30z"/>
<path d="M3589 4909 c-380 -261 -675 -632 -839 -1056 -55 -142 -114 -377 -134
-531 -18 -142 -21 -398 -5 -540 53 -492 276 -974 607 -1313 l64 -67 -93 -44
c-392 -187 -620 -611 -559 -1040 18 -129 39 -143 231 -155 286 -17 563 90 764
295 l61 61 74 -72 c180 -173 399 -269 645 -284 123 -7 265 11 299 38 27 21 40
72 51 195 16 169 -43 410 -139 571 -98 165 -271 321 -442 399 l-76 34 62 67
c318 339 524 765 596 1233 28 175 25 512 -4 685 -78 453 -259 832 -556 1167
-146 165 -450 408 -510 408 -12 0 -56 -23 -97 -51z m196 -196 c112 -84 311
-281 392 -388 146 -194 258 -404 327 -616 25 -77 46 -141 46 -143 0 -11 -173
-104 -254 -137 -226 -93 -401 -124 -661 -116 -187 6 -298 24 -455 77 -73 24
-292 130 -329 158 l-23 19 21 74 c83 295 270 617 489 843 123 126 324 296 351
296 3 0 47 -30 96 -67z"/>
<path d="M3785 4146 c-199 -92 -206 -364 -13 -462 102 -52 226 -29 301 56 52
56 67 96 67 173 0 187 -189 311 -355 233z m166 -165 c23 -23 29 -38 29 -71 0
-89 -101 -126 -162 -59 -85 91 45 218 133 130z"/>
</g>
</svg>
