<?xml version="1.0" standalone="no"?>
<!DOCTYPE svg PUBLIC "-//W3C//DTD SVG 20010904//EN"
 "http://www.w3.org/TR/2001/REC-SVG-20010904/DTD/svg10.dtd">
<svg version="1.0" xmlns="http://www.w3.org/2000/svg"
 width="512.000000pt" height="512.000000pt" viewBox="0 0 512.000000 512.000000"
 preserveAspectRatio="xMidYMid meet">

<g transform="translate(0.000000,512.000000) scale(0.100000,-0.100000)"
fill="#000000" stroke="none">
<path d="M572 5103 c-44 -21 -80 -66 -88 -109 -5 -28 15 -122 84 -403 219
-879 315 -1520 373 -2471 6 -96 13 -512 15 -925 3 -412 9 -775 15 -805 30
-181 193 -345 378 -380 35 -6 469 -10 1220 -10 1283 0 1222 -3 1342 61 70 38
157 126 193 197 55 109 56 118 56 742 0 1036 31 1582 126 2240 64 444 145 853
276 1385 88 361 90 377 41 436 -53 63 90 59 -2045 59 -1778 0 -1956 -2 -1986
-17z m3698 -308 c0 -3 -18 -77 -39 -163 -136 -541 -189 -837 -346 -1932 -62
-429 -116 -775 -131 -830 -14 -52 -51 -149 -84 -215 -173 -356 -473 -587 -870
-672 -118 -25 -362 -25 -480 0 -485 103 -841 444 -964 922 -8 33 -63 391 -121
795 -157 1096 -212 1399 -346 1932 -21 86 -39 160 -39 163 0 3 770 5 1710 5
941 0 1710 -2 1710 -5z m-2918 -3580 c474 -592 1341 -748 1998 -359 168 99
354 263 452 400 l33 46 3 -418 c2 -274 -1 -432 -8 -456 -13 -44 -68 -95 -112
-103 -18 -3 -551 -4 -1185 -3 -1145 3 -1152 3 -1179 24 -15 11 -37 33 -48 48
-20 27 -21 41 -24 469 -1 243 1 437 6 432 4 -6 33 -41 64 -80z"/>
</g>
</svg>
