<?xml version="1.0" standalone="no"?>
<!DOCTYPE svg PUBLIC "-//W3C//DTD SVG 20010904//EN"
 "http://www.w3.org/TR/2001/REC-SVG-20010904/DTD/svg10.dtd">
<svg version="1.0" xmlns="http://www.w3.org/2000/svg"
 width="512.000000pt" height="512.000000pt" viewBox="0 0 512.000000 512.000000"
 preserveAspectRatio="xMidYMid meet">

<g transform="translate(0.000000,512.000000) scale(0.100000,-0.100000)"
fill="#000000" stroke="none">
<path d="M575 5106 c-17 -7 -43 -28 -58 -45 -49 -59 -47 -75 41 -436 173 -701
267 -1217 326 -1775 54 -519 66 -790 72 -1670 3 -404 10 -760 15 -790 30 -181
193 -345 378 -380 35 -6 469 -10 1220 -10 1283 0 1222 -3 1342 61 70 38 157
126 193 197 56 110 56 116 56 762 0 922 25 1419 101 2030 64 516 153 985 299
1576 44 177 80 335 80 351 0 35 -33 87 -73 117 l-28 21 -1967 2 c-1620 2
-1972 0 -1997 -11z m3695 -309 c0 -2 -25 -106 -55 -233 -108 -445 -199 -936
-259 -1384 -43 -327 -156 -1087 -177 -1196 -27 -143 -53 -221 -110 -339 -109
-225 -319 -438 -539 -550 -87 -44 -216 -89 -320 -111 -119 -25 -372 -26 -490
-1 -308 66 -572 231 -751 471 -79 106 -172 295 -203 416 -14 52 -73 426 -131
830 -155 1073 -204 1350 -325 1849 -33 134 -60 245 -60 247 0 2 770 4 1710 4
941 0 1710 -1 1710 -3z"/>
<path d="M1260 4470 c0 -6 13 -70 29 -143 81 -363 124 -617 211 -1232 159
-1119 173 -1193 256 -1342 150 -269 440 -450 755 -470 397 -25 772 221 909
596 39 105 48 162 170 1006 124 862 171 1142 251 1483 10 45 19 89 19 97 0 13
-166 15 -1300 15 -866 0 -1300 -3 -1300 -10z"/>
</g>
</svg>
