<?xml version="1.0" standalone="no"?>
<!DOCTYPE svg PUBLIC "-//W3C//DTD SVG 20010904//EN"
 "http://www.w3.org/TR/2001/REC-SVG-20010904/DTD/svg10.dtd">
<svg version="1.0" xmlns="http://www.w3.org/2000/svg"
 width="512.000000pt" height="512.000000pt" viewBox="0 0 512.000000 512.000000"
 preserveAspectRatio="xMidYMid meet">

<g transform="translate(0.000000,512.000000) scale(0.100000,-0.100000)"
fill="#000000" stroke="none">
<path d="M2085 5113 c-32 -8 -84 -51 -101 -85 -29 -56 -22 -114 24 -205 23
-46 42 -87 42 -92 0 -5 -33 -17 -72 -26 -177 -43 -406 -133 -573 -226 -662
-369 -1108 -1019 -1210 -1764 -19 -138 -29 -306 -20 -344 13 -62 100 -86 140
-39 19 22 23 43 29 149 27 486 190 921 483 1293 72 91 258 277 348 347 203
160 418 278 655 361 102 36 257 78 285 78 15 0 30 -20 58 -71 20 -39 35 -74
32 -79 -3 -4 -26 -11 -52 -15 -81 -12 -272 -71 -386 -119 -650 -273 -1110
-859 -1234 -1571 -24 -140 -24 -490 0 -630 52 -299 155 -564 314 -805 597
-905 1763 -1190 2709 -663 361 201 663 516 840 877 62 126 66 155 25 197 -62
62 -109 33 -178 -109 -28 -59 -67 -131 -85 -160 l-34 -52 -515 376 -516 376
23 56 c13 31 27 74 30 95 l7 37 639 0 640 0 -7 -98 c-7 -90 -6 -99 15 -124 29
-37 90 -39 125 -4 32 32 40 100 39 321 -1 410 -110 775 -332 1115 -286 439
-719 744 -1236 870 -65 17 -121 31 -123 33 -2 2 13 36 34 75 28 54 43 72 59
72 40 0 275 -70 386 -115 747 -305 1261 -975 1369 -1785 18 -135 15 -440 -6
-575 -100 -658 -445 -1199 -990 -1554 -267 -174 -572 -288 -900 -337 -160 -23
-446 -24 -610 0 -468 68 -889 272 -1230 598 -302 288 -511 650 -614 1059 -32
127 -43 157 -65 176 -15 13 -33 23 -41 23 -28 0 -65 -20 -81 -45 -14 -22 -15
-33 -4 -92 31 -169 106 -385 200 -578 142 -290 350 -556 610 -778 l55 -47
-476 0 -476 0 -43 -23 c-71 -37 -90 -85 -90 -221 0 -61 5 -127 10 -146 11 -41
61 -94 103 -109 20 -8 766 -11 2448 -11 2659 0 2456 -5 2516 63 38 44 46 86
41 229 -3 92 -6 109 -28 141 -14 21 -43 46 -66 57 -38 19 -62 20 -515 20
l-474 1 60 51 c33 28 110 102 172 165 576 584 809 1432 612 2233 -81 328 -241
655 -447 915 -74 93 -248 271 -344 352 -247 206 -587 383 -897 464 -66 18
-121 36 -121 41 0 5 17 43 39 86 21 42 41 90 45 105 16 68 -44 168 -112 187
-37 10 -916 13 -957 3z m691 -583 c-116 -231 -213 -420 -216 -420 -3 0 -101
189 -218 420 l-213 420 429 0 429 0 -211 -420z m-467 -307 c7 -16 39 -78 72
-139 72 -133 105 -159 193 -152 83 7 106 30 183 184 63 125 70 134 93 130 86
-16 189 -39 199 -45 7 -5 -56 -211 -187 -613 l-197 -607 -104 2 -104 2 -197
605 c-108 333 -195 607 -193 610 3 3 195 46 224 49 3 1 11 -11 18 -26z m-211
-681 c106 -328 192 -603 192 -609 0 -7 -13 -19 -28 -27 -16 -8 -52 -33 -80
-56 l-52 -40 -497 361 c-274 199 -506 369 -516 379 -18 16 -16 20 40 85 80 95
228 223 353 307 101 69 349 197 380 198 11 0 66 -158 208 -598z m1277 535
c155 -76 307 -176 430 -284 85 -75 215 -215 215 -232 0 -6 -965 -712 -1016
-744 -8 -4 -37 11 -77 40 -35 27 -72 53 -83 59 -18 11 -17 17 28 155 277 852
350 1069 361 1069 7 0 71 -29 142 -63z m-1861 -1032 l515 -376 -18 -42 c-10
-23 -24 -66 -30 -94 l-13 -53 -640 0 -641 0 7 85 c15 203 77 427 171 624 51
106 122 231 130 231 2 0 236 -169 519 -375z m2719 184 c111 -220 180 -456 194
-666 l6 -93 -364 0 c-200 0 -488 3 -639 7 l-276 6 -27 81 c-15 45 -28 87 -30
94 -1 8 227 179 513 387 l515 374 18 -22 c9 -12 50 -88 90 -168z m-1591 -420
c230 -48 389 -272 351 -495 -30 -175 -157 -315 -327 -360 -245 -65 -502 109
-539 368 -41 289 230 546 515 487z m-667 -546 c3 -21 17 -64 29 -95 l23 -56
-516 -375 -516 -374 -34 51 c-129 197 -245 544 -266 799 l-7 87 640 0 640 0 7
-37z m207 -339 c23 -20 58 -44 76 -52 18 -9 31 -21 29 -26 -2 -6 -91 -280
-197 -608 -181 -555 -196 -598 -215 -592 -52 16 -250 118 -335 174 -131 87
-218 159 -338 285 -87 90 -102 110 -90 121 28 27 1004 733 1015 733 6 1 31
-15 55 -35z m577 -434 c55 -168 143 -439 196 -603 53 -164 95 -300 93 -302 -2
-2 -62 -16 -133 -31 -119 -25 -149 -28 -355 -28 -224 -1 -308 8 -451 47 l-46
12 194 595 c106 327 195 600 197 605 2 6 46 10 105 10 l101 0 99 -305z"/>
<path d="M2454 2621 c-97 -44 -149 -135 -142 -250 6 -107 57 -160 126 -132 44
19 59 52 44 106 -20 76 20 135 91 135 60 0 90 95 44 138 -30 28 -105 29 -163
3z"/>
</g>
</svg>
